name rise49.5252peak65.1548fall88.8305.mot
datacolumns 19
datarows 11
range 4.83664700000000 4.85330900000000
endheader
time	ground_force1_vx	ground_force1_vy	ground_force1_vz	ground_force1_px	ground_force1_py	ground_force1_pz	ground_force2_vx	ground_force2_vy	ground_force2_vz	ground_force2_px	ground_force2_py	ground_force2_pz	ground_torque1_x	ground_torque1_y	ground_torque1_z	ground_torque2_x	ground_torque2_y	ground_torque2_z	
4.83664700000000	-50.23752500000000	818.61202300000002	61.22461900000000	0.16377000000000	0.00000000000000	0.14151100000000	-6.25715100000000	26.58588400000000	5.77556500000000	0.36297100000000	0.00000000000000	-0.06048200000000	0.00000000000000	32.85064700000000	0.00000000000000	0.00000000000000	3.90268500000000	0.00000000000000	
4.83830800000000	-50.68391200000000	817.07711900000004	61.16199900000000	0.16289200000000	0.00000000000000	0.14146400000000	-7.35458900000000	32.79078700000000	6.89255800000000	0.36568600000000	0.00000000000000	-0.06122100000000	0.00000000000000	32.79600100000000	0.00000000000000	0.00000000000000	4.68393300000000	0.00000000000000	
4.83997400000000	-51.14383200000000	815.39771199999996	61.07805100000000	0.16200900000000	0.00000000000000	0.14141400000000	-8.39553800000000	39.27203000000000	7.99124200000000	0.36820700000000	0.00000000000000	-0.06188100000000	0.00000000000000	32.73976600000000	0.00000000000000	0.00000000000000	5.46077600000000	0.00000000000000	
4.84163900000000	-51.61730200000000	813.57115099999999	60.97208000000000	0.16112400000000	0.00000000000000	0.14136100000000	-9.34379000000000	45.91168500000000	9.04012100000000	0.37058200000000	0.00000000000000	-0.06247500000000	0.00000000000000	32.68197000000000	0.00000000000000	0.00000000000000	6.21197300000000	0.00000000000000	
4.84331200000000	-52.10426200000000	811.59482800000001	60.84342100000000	0.16023700000000	0.00000000000000	0.14130500000000	-10.16888500000000	52.60272200000000	10.01200800000000	0.37284700000000	0.00000000000000	-0.06301500000000	0.00000000000000	32.62262600000000	0.00000000000000	0.00000000000000	6.91896900000000	0.00000000000000	
4.84497400000000	-52.60457200000000	809.46617700000002	60.69143700000000	0.15935100000000	0.00000000000000	0.14124500000000	-10.84773100000000	59.25596600000000	10.88554300000000	0.37502900000000	0.00000000000000	-0.06350600000000	0.00000000000000	32.56173900000000	0.00000000000000	0.00000000000000	7.56694800000000	0.00000000000000	
4.84664500000000	-53.11801300000000	807.18268200000000	60.51552400000000	0.15846500000000	0.00000000000000	0.14118200000000	-11.36540800000000	65.80460200000000	11.64601500000000	0.37715200000000	0.00000000000000	-0.06395600000000	0.00000000000000	32.49929900000000	0.00000000000000	0.00000000000000	8.14543200000000	0.00000000000000	
4.84830800000000	-53.64428400000000	804.74188300000003	60.31511100000000	0.15758200000000	0.00000000000000	0.14111500000000	-11.71518400000000	72.20613400000001	12.28552200000000	0.37923100000000	0.00000000000000	-0.06437100000000	0.00000000000000	32.43528700000000	0.00000000000000	0.00000000000000	8.64844300000000	0.00000000000000	
4.84997600000000	-54.18300300000000	802.14138200000002	60.08966400000000	0.15670400000000	0.00000000000000	0.14104500000000	-11.89785300000000	78.44202400000000	12.80253800000000	0.38127800000000	0.00000000000000	-0.06475400000000	0.00000000000000	32.36966600000000	0.00000000000000	0.00000000000000	9.07427500000000	0.00000000000000	
4.85164700000000	-54.73370600000000	799.37884699999995	59.83868900000000	0.15583000000000	0.00000000000000	0.14097000000000	-11.92058500000000	84.51542100000000	13.20104100000000	0.38330400000000	0.00000000000000	-0.06511000000000	0.00000000000000	32.30238700000000	0.00000000000000	0.00000000000000	9.42494200000000	0.00000000000000	
4.85330900000000	-55.29584500000000	796.45201899999995	59.56173500000000	0.15496400000000	0.00000000000000	0.14089100000000	-11.79544100000000	90.44749600000000	13.48933700000000	0.38531700000000	0.00000000000000	-0.06544100000000	0.00000000000000	32.23338800000000	0.00000000000000	0.00000000000000	9.70543400000000	0.00000000000000	
